<?xml version="1.0" encoding="utf-8"?>
<!-- Generator: Adobe Illustrator 28.1.0, SVG Export Plug-In . SVG Version: 6.00 Build 0)  -->
<svg version="1.1" id="Layer_1" xmlns="http://www.w3.org/2000/svg" xmlns:xlink="http://www.w3.org/1999/xlink" x="0px" y="0px"
	 viewBox="0 0 226.8 226.8" style="enable-background:new 0 0 226.8 226.8;" xml:space="preserve">
<style type="text/css">
	.st0{fill:url(#SVGID_1_);}
	.st1{fill:url(#SVGID_00000157990450577028512410000006081780297585426585_);}
	.st2{fill:#FFFFFF;}
</style>
<image style="overflow:visible;enable-background:new    ;" width="1536" height="1024" xlink:href="36EFD96D.jpg"  transform="matrix(0.2289 0 0 0.2289 384.5185 101.276)">
</image>
<linearGradient id="SVGID_1_" gradientUnits="userSpaceOnUse" x1="105.4272" y1="391.3361" x2="254.7066" y2="470.9532" gradientTransform="matrix(1 0 0 -1 0 226.7717)">
	<stop  offset="0" style="stop-color:#3263AE"/>
	<stop  offset="1" style="stop-color:#439AD4"/>
</linearGradient>
<path class="st0" d="M51-237.4v121.9c0,0-0.5,4.9,3.9,3.9h147.3c0,0,5.4,0.5,4.9-4.9v-15.1c0,0,0-3.4-4.4-2.9L90-120.8
	c0,0-3.4,0.5-3.4-2c0,0-0.5-2.9,1.5-3.4l129.7-18c0,0,2.9,0.5,2.4-2.9v-129.7c0,0,0-5.4-7.8-2.9L54.9-243.2
	C54.6-243.2,51-241.1,51-237.4z"/>
<g>
	
		<linearGradient id="SVGID_00000127020979661499039060000015510082393434527631_" gradientUnits="userSpaceOnUse" x1="76.8403" y1="78.5603" x2="266.7752" y2="179.8611" gradientTransform="matrix(1 0 0 -1 0 226.7717)">
		<stop  offset="0" style="stop-color:#3263AE"/>
		<stop  offset="1" style="stop-color:#439AD4"/>
	</linearGradient>
	<path style="fill:url(#SVGID_00000127020979661499039060000015510082393434527631_);" d="M7.2,54.8v155.2c0,0-0.7,6.2,5.2,5.2
		l187.2,0.1c0,0,6.6,0.9,6.2-6v-19.3c0,0,0.3-4.6-5.6-3.4l-143,17.6c0,0-4.2,0.8-4.6-2.2c0,0-0.9-3.9,1.8-4.3l164.8-22.8
		c0,0,3.8,0.4,3.1-3.4l0.1-164.8c0,0,0-6.8-9.8-3.8L12.4,49.2C12.4,49.2,7.5,49.8,7.2,54.8z"/>
	<g>
		<path class="st2" d="M32.4,160.7l-8.1-68.5l15-1.8L46,146l32.6-3.9l1.5,12.9L32.4,160.7z"/>
		<path class="st2" d="M88.5,154.1l-8.1-68.5l49.1-5.8l1.5,12.7l-34.2,4.1l5.1,43.1l35.4-4.2l1.5,12.7L88.5,154.1z M99,123.9
			l-1.5-12.3l31.3-3.7l1.5,12.3L99,123.9z"/>
		<path class="st2" d="M150.9,146.7l-8.1-68.5l29.5-3.5c7.1-0.8,13.5-0.2,19.2,2c5.7,2.2,10.4,5.7,14,10.4
			c3.6,4.7,5.9,10.6,6.7,17.6c0.8,6.9,0,13.1-2.4,18.6c-2.4,5.5-6.2,10-11.2,13.4c-5,3.5-11.1,5.6-18.2,6.5L150.9,146.7z
			 M164.4,131.9l13.7-1.6c4.3-0.5,8-1.8,11-3.9c3-2.1,5.2-4.9,6.6-8.3c1.4-3.4,1.8-7.3,1.3-11.6c-0.5-4.4-1.8-8-4-11
			c-2.1-3-4.9-5.1-8.3-6.5c-3.4-1.3-7.3-1.8-11.6-1.3l-13.7,1.6L164.4,131.9z"/>
	</g>
</g>
<path class="st2" d="M980.3,84.4l-3.8-71.3l33.7-3c8.9-0.8,15.7,0.4,20.4,3.5c4.7,3.1,7.3,7.5,7.6,13.3c0.2,3.8-0.5,7.2-2.2,10.2
	c-1.7,3-4.1,5.3-7.2,7.1c-3.1,1.8-6.7,2.8-10.8,3.1l1.7-4.4c4.5-0.3,8.5,0.1,12,1.4c3.6,1.3,6.4,3.3,8.5,6.1
	c2.1,2.8,3.3,6.4,3.5,10.6c0.4,6.3-1.8,11.4-6.5,15.2c-4.7,3.8-11.7,5.9-21,6.4L980.3,84.4z M995.4,71.1l18.8-1.1
	c4.2-0.2,7.4-1.1,9.5-2.7c2.1-1.5,3.1-3.9,2.9-7c-0.2-3.1-1.4-5.3-3.7-6.6c-2.3-1.3-5.5-1.9-9.8-1.6l-20,1.3l-0.7-12.1l17.2-1.3
	c3.9-0.3,6.9-1.2,9-2.8c2-1.6,3-3.8,2.8-6.7c-0.2-2.8-1.3-4.9-3.5-6.1c-2.2-1.2-5.3-1.7-9.2-1.4l-16,1.3L995.4,71.1z"/>
<path class="st2" d="M1086.6,95.1c-6,0.3-11.5-0.4-16.6-2c-5.1-1.6-9.5-4.1-13.3-7.4c-3.8-3.3-6.8-7.2-9.1-11.7
	c-2.2-4.5-3.5-9.6-3.8-15.1c-0.3-5.6,0.4-10.7,2.1-15.5c1.7-4.8,4.3-9.1,7.8-12.9s7.6-6.8,12.5-9.1c4.9-2.3,10.3-3.8,16.4-4.3
	c6.7-0.6,12.9,0,18.5,1.7c5.6,1.8,10.5,4.6,14.5,8.6l-11,11.4c-3-2.7-6.1-4.6-9.5-5.7c-3.4-1.2-7-1.6-10.8-1.2
	c-3.7,0.3-7,1.1-9.9,2.5c-2.9,1.4-5.4,3.2-7.5,5.5c-2,2.3-3.6,5-4.6,8s-1.4,6.3-1.2,9.8c0.2,3.5,1,6.6,2.3,9.5
	c1.3,2.8,3.1,5.3,5.4,7.3c2.3,2,5,3.5,8,4.5s6.4,1.4,10,1.1c3.5-0.2,6.9-1,10.1-2.3c3.3-1.3,6.4-3.4,9.4-6.3l11,12.2
	c-4.1,3.4-8.9,6-14.3,8C1097.5,93.7,1092,94.8,1086.6,95.1z M1117.3,83.7l-16.6-1.4l-1.6-28.5l16.4-1.2L1117.3,83.7z"/>
<polygon class="st2" points="1057.4,72.4 1029.7,74.5 1030.4,82.9 1057.8,80.7 "/>
<text transform="matrix(1 0 0 1 417.9553 156.5542)" style="font-family:'Montserrat-Bold'; font-size:17.9124px;">LED Bilbordi</text>
</svg>
