<?xml version="1.0" encoding="utf-8"?>
<!-- Generator: Adobe Illustrator 28.1.0, SVG Export Plug-In . SVG Version: 6.00 Build 0)  -->
<svg version="1.1" id="Layer_1" xmlns="http://www.w3.org/2000/svg" xmlns:xlink="http://www.w3.org/1999/xlink" x="0px" y="0px"
	 viewBox="0 0 226.8 226.8" style="enable-background:new 0 0 226.8 226.8;" xml:space="preserve">
<style type="text/css">
	.st0{fill:url(#SVGID_1_);}
	.st1{fill:url(#SVGID_00000059289760865255395680000008150433237534113720_);}
	.st2{fill:#FFFFFF;}
</style>
<image style="overflow:visible;enable-background:new    ;" width="1536" height="1024" xlink:href="7CE18522.jpg"  transform="matrix(0.2289 0 0 0.2289 384.5185 101.276)">
</image>
<linearGradient id="SVGID_1_" gradientUnits="userSpaceOnUse" x1="105.4272" y1="391.3361" x2="254.7066" y2="470.9532" gradientTransform="matrix(1 0 0 -1 0 226.7717)">
	<stop  offset="0" style="stop-color:#3263AE"/>
	<stop  offset="1" style="stop-color:#439AD4"/>
</linearGradient>
<path class="st0" d="M51-237.4v121.9c0,0-0.5,4.9,3.9,3.9h147.3c0,0,5.4,0.5,4.9-4.9v-15.1c0,0,0-3.4-4.4-2.9L90-120.8
	c0,0-3.4,0.5-3.4-2c0,0-0.5-2.9,1.5-3.4l129.7-18c0,0,2.9,0.5,2.4-2.9v-129.7c0,0,0-5.4-7.8-2.9L54.9-243.2
	C54.6-243.2,51-241.1,51-237.4z"/>
<linearGradient id="SVGID_00000039121245918330422010000000967420153860427167_" gradientUnits="userSpaceOnUse" x1="84.3255" y1="83.0232" x2="229.7648" y2="160.5924" gradientTransform="matrix(1 0 0 -1 0 226.7717)">
	<stop  offset="0" style="stop-color:#3263AE"/>
	<stop  offset="1" style="stop-color:#439AD4"/>
</linearGradient>
<path style="fill:url(#SVGID_00000039121245918330422010000000967420153860427167_);" d="M31,72.2V191c0,0-0.5,4.7,4,4l143.4,0.1
	c0,0,5,0.7,4.7-4.6v-14.8c0,0,0.2-3.5-4.3-2.6L69.3,186.6c0,0-3.2,0.6-3.5-1.7c0,0-0.7-3,1.3-3.3l126.2-17.5c0,0,2.9,0.3,2.4-2.6
	l0.1-126.2c0,0,0-5.2-7.5-2.9L35,67.9C35,67.9,31.2,68.4,31,72.2z"/>
<g>
	<path class="st2" d="M50.3,153.3l-6.2-52.5l11.5-1.4l5,42.6l25-3l1.2,9.9L50.3,153.3z"/>
	<path class="st2" d="M93.3,148.2l-6.2-52.5l37.6-4.5l1.2,9.7l-26.2,3.1l3.9,33l27.1-3.2l1.2,9.7L93.3,148.2z M101.3,125.1l-1.1-9.4
		l24-2.8l1.1,9.4L101.3,125.1z"/>
	<path class="st2" d="M141,142.6l-6.2-52.5l22.6-2.7c5.4-0.6,10.3-0.1,14.7,1.6c4.4,1.7,8,4.3,10.8,8c2.8,3.6,4.5,8.1,5.1,13.5
		c0.6,5.3,0,10-1.8,14.2c-1.9,4.2-4.7,7.6-8.6,10.3c-3.9,2.7-8.5,4.3-13.9,5L141,142.6z M151.4,131.3l10.5-1.2
		c3.3-0.4,6.1-1.4,8.4-3c2.3-1.6,4-3.7,5-6.3c1.1-2.6,1.4-5.6,1-8.9c-0.4-3.3-1.4-6.2-3.1-8.4c-1.6-2.3-3.8-3.9-6.4-4.9
		c-2.6-1-5.6-1.4-8.9-1l-10.5,1.2L151.4,131.3z"/>
</g>
<path class="st2" d="M980.3,84.4l-3.8-71.3l33.7-3c8.9-0.8,15.7,0.4,20.4,3.5c4.7,3.1,7.3,7.5,7.6,13.3c0.2,3.8-0.5,7.2-2.2,10.2
	c-1.7,3-4.1,5.3-7.2,7.1c-3.1,1.8-6.7,2.8-10.8,3.1l1.7-4.4c4.5-0.3,8.5,0.1,12,1.4c3.6,1.3,6.4,3.3,8.5,6.1
	c2.1,2.8,3.3,6.4,3.5,10.6c0.4,6.3-1.8,11.4-6.5,15.2c-4.7,3.8-11.7,5.9-21,6.4L980.3,84.4z M995.4,71.1l18.8-1.1
	c4.2-0.2,7.4-1.1,9.5-2.7c2.1-1.5,3.1-3.9,2.9-7c-0.2-3.1-1.4-5.3-3.7-6.6c-2.3-1.3-5.5-1.9-9.8-1.6l-20,1.3l-0.7-12.1l17.2-1.3
	c3.9-0.3,6.9-1.2,9-2.8c2-1.6,3-3.8,2.8-6.7c-0.2-2.8-1.3-4.9-3.5-6.1c-2.2-1.2-5.3-1.7-9.2-1.4l-16,1.3L995.4,71.1z"/>
<path class="st2" d="M1086.6,95.1c-6,0.3-11.5-0.4-16.6-2c-5.1-1.6-9.5-4.1-13.3-7.4c-3.8-3.3-6.8-7.2-9.1-11.7
	c-2.2-4.5-3.5-9.6-3.8-15.1c-0.3-5.6,0.4-10.7,2.1-15.5c1.7-4.8,4.3-9.1,7.8-12.9s7.6-6.8,12.5-9.1c4.9-2.3,10.3-3.8,16.4-4.3
	c6.7-0.6,12.9,0,18.5,1.7c5.6,1.8,10.5,4.6,14.5,8.6l-11,11.4c-3-2.7-6.1-4.6-9.5-5.7c-3.4-1.2-7-1.6-10.8-1.2
	c-3.7,0.3-7,1.1-9.9,2.5c-2.9,1.4-5.4,3.2-7.5,5.5c-2,2.3-3.6,5-4.6,8s-1.4,6.3-1.2,9.8c0.2,3.5,1,6.6,2.3,9.5
	c1.3,2.8,3.1,5.3,5.4,7.3c2.3,2,5,3.5,8,4.5s6.4,1.4,10,1.1c3.5-0.2,6.9-1,10.1-2.3c3.3-1.3,6.4-3.4,9.4-6.3l11,12.2
	c-4.1,3.4-8.9,6-14.3,8C1097.5,93.7,1092,94.8,1086.6,95.1z M1117.3,83.7l-16.6-1.4l-1.6-28.5l16.4-1.2L1117.3,83.7z"/>
<polygon class="st2" points="1057.4,72.4 1029.7,74.5 1030.4,82.9 1057.8,80.7 "/>
<text transform="matrix(1 0 0 1 417.9553 156.5542)" style="font-family:'Montserrat-Bold'; font-size:17.9124px;">LED Bilbordi</text>
</svg>
